<!DOCTYPE svg PUBLIC "-//W3C//DTD SVG 1.1//EN" "http://www.w3.org/Graphics/SVG/1.1/DTD/svg11.dtd">
<!-- Uploaded to: SVG Repo, www.svgrepo.com, Transformed by: SVG Repo Mixer Tools -->
<svg fill="#24f0e2" width="800px" height="800px" viewBox="0 0 200 200" data-name="Layer 1" id="Layer_1" xmlns="http://www.w3.org/2000/svg" stroke="#24f0e2">
<g id="SVGRepo_bgCarrier" stroke-width="0"/>
<g id="SVGRepo_tracerCarrier" stroke-linecap="round" stroke-linejoin="round"/>
<g id="SVGRepo_iconCarrier">
<title/>
<path d="M89,36.5l-24.5,20c-1.5,1.5-4,2-6,2l-27,.5C20.47,59,12,68,12,79v42c0,11,8.5,20,19.5,20l27,.5a12.25,12.25,0,0,1,6,2l24.5,20a19.91,19.91,0,0,0,32.5-15.5V52A19.91,19.91,0,0,0,89,36.5ZM101.47,148,77,128a29.71,29.71,0,0,0-18.5-6.5l-27-.5V79l27-.5A32,32,0,0,0,77,72l24.5-20Zm71-49,14-22a10.12,10.12,0,1,0-17-11l-9,14.5-9-14a10.12,10.12,0,0,0-17,11l14,22-14,22a10.12,10.12,0,0,0,17,11l9-14.5,9,14.5a10.12,10.12,0,1,0,17-11Z"/>
</g>
</svg>